<svg xmlns="http://www.w3.org/2000/svg" viewBox="1116 1845 118.462 110"><defs><style>.a{opacity:0.75;}</style></defs><g class="a" transform="translate(1116 1829)"><g transform="translate(0 16)"><g transform="translate(0 0)"><path d="M112.538,69.036V25.821A9.858,9.858,0,0,0,102.667,16H15.795a9.858,9.858,0,0,0-9.872,9.821V55.286A5.915,5.915,0,0,0,0,61.179v58.929A5.915,5.915,0,0,0,5.923,126H49.359a5.915,5.915,0,0,0,5.923-5.893H71.829a5.889,5.889,0,0,0,4.707-2.316,5.827,5.827,0,0,0,1.007-5.127L73.661,98.5H84.9v21.607A5.915,5.915,0,0,0,90.821,126h21.718a5.915,5.915,0,0,0,5.923-5.893V74.929A5.915,5.915,0,0,0,112.538,69.036ZM51.333,120.107a1.973,1.973,0,0,1-1.974,1.964H5.923a1.973,1.973,0,0,1-1.974-1.964v-3.929H51.333Zm0-7.857H3.949V69.036H51.333Zm0-47.143H3.949V61.179a1.973,1.973,0,0,1,1.974-1.964H49.359a1.973,1.973,0,0,1,1.974,1.964Zm22.4,48.591a1.939,1.939,0,0,1-.336,1.709,1.962,1.962,0,0,1-1.57.772H55.282V112.25H73.338Zm-18.452-5.376V98.5H69.569l2.693,9.821ZM84.9,94.571H55.282V82.786H84.9Zm0-19.643v3.929H55.282V61.179a5.915,5.915,0,0,0-5.923-5.893H9.872V25.821a5.915,5.915,0,0,1,5.923-5.893h86.872a5.915,5.915,0,0,1,5.923,5.893V69.036H90.821A5.915,5.915,0,0,0,84.9,74.929Zm29.615,45.179a1.973,1.973,0,0,1-1.974,1.964H90.821a1.973,1.973,0,0,1-1.974-1.964v-3.929h25.667Zm0-7.857H88.846V82.786h25.667Zm0-33.393H88.846V74.929a1.973,1.973,0,0,1,1.974-1.964h21.718a1.973,1.973,0,0,1,1.974,1.964Z" transform="translate(0 -16)"/></g></g><g transform="translate(13.821 23.857)"><rect width="3.949" height="3.929"/></g><g transform="translate(21.718 23.857)"><rect width="3.949" height="3.929"/></g><g transform="translate(29.615 23.857)"><rect width="3.949" height="3.929"/></g></g></svg>