<svg xmlns="http://www.w3.org/2000/svg" viewBox="284 1846 94.487 110"><defs><style>.a{opacity:0.75;}</style></defs><path class="a" d="M97.593,38.312a3.368,3.368,0,0,0-4.683,1.1A3.482,3.482,0,0,0,94,44.169a12.87,12.87,0,0,1,0,21.664L38.247,101.127a12.257,12.257,0,0,1-12.752.33,12.639,12.639,0,0,1-6.472-11.161V19.706A12.639,12.639,0,0,1,25.495,8.544a12.257,12.257,0,0,1,12.752.33L70.7,29.42a3.37,3.37,0,0,0,4.683-1.1A3.482,3.482,0,0,0,74.3,23.563L41.844,3.018A18.883,18.883,0,0,0,22.2,2.51a19.472,19.472,0,0,0-9.97,17.2V90.294a19.472,19.472,0,0,0,9.971,17.2,18.882,18.882,0,0,0,19.647-.508L97.593,71.688a19.827,19.827,0,0,0,0-33.376Z" transform="translate(271.774 1846)"/></svg>