<svg xmlns="http://www.w3.org/2000/svg" viewBox="695 1846 118.462 110"><defs><style>.a{opacity:0.75;}</style></defs><g class="a" transform="translate(695 1828.75)"><g transform="translate(0 17.25)"><path d="M115.068,228.654a3.383,3.383,0,0,0-3.394,3.4v30.932a15.245,15.245,0,0,1-15.21,15.239H22a15.245,15.245,0,0,1-15.21-15.239V231.55a3.394,3.394,0,1,0-6.788,0v31.436a22.043,22.043,0,0,0,22,22.04H96.464a22.043,22.043,0,0,0,22-22.04V232.054A3.4,3.4,0,0,0,115.068,228.654Z" transform="translate(0 -175.027)"/><path d="M142.1,44.681l15.788-15.819V97.854a3.394,3.394,0,1,0,6.788,0V28.862l15.788,15.819a3.413,3.413,0,0,0,2.388,1.008,3.268,3.268,0,0,0,2.388-1.008,3.4,3.4,0,0,0,0-4.811l-21.57-21.612a3.431,3.431,0,0,0-2.388-1.008,3.284,3.284,0,0,0-2.388,1.008L137.324,39.87a3.39,3.39,0,0,0,4.777,4.811Z" transform="translate(-102.052 -17.25)"/></g></g></svg>